<?xml version="1.0" encoding="UTF-8"?>
<svg xmlns="http://www.w3.org/2000/svg" xmlns:xlink="http://www.w3.org/1999/xlink" width="30px" height="30px" viewBox="0 0 30 30" version="1.1">
<g id="surface1">
<path style=" stroke:none;fill-rule:nonzero;fill:rgb(89.803922%,90.196078%,90.196078%);fill-opacity:1;" d="M 3.28125 16.171875 L 2.109375 16.171875 C 1.453125 16.171875 0.9375 15.65625 0.9375 15 C 0.9375 14.34375 1.453125 13.828125 2.109375 13.828125 L 3.28125 13.828125 "/>
<path style=" stroke:none;fill-rule:nonzero;fill:rgb(89.803922%,90.196078%,90.196078%);fill-opacity:1;" d="M 10.3125 13.828125 L 19.6875 13.828125 L 19.6875 16.171875 L 10.3125 16.171875 Z M 10.3125 13.828125 "/>
<path style=" stroke:none;fill-rule:nonzero;fill:rgb(89.803922%,90.196078%,90.196078%);fill-opacity:1;" d="M 26.71875 13.828125 L 27.890625 13.828125 C 28.546875 13.828125 29.0625 14.34375 29.0625 15 C 29.0625 15.65625 28.546875 16.171875 27.890625 16.171875 L 26.71875 16.171875 "/>
<path style=" stroke:none;fill-rule:nonzero;fill:rgb(100%,100%,100%);fill-opacity:1;" d="M 22.03125 20.882812 L 23.203125 20.882812 C 23.859375 20.882812 24.375 20.367188 24.375 19.710938 L 24.375 10.335938 C 24.375 9.679688 23.859375 9.164062 23.203125 9.164062 L 22.03125 9.164062 "/>
<path style=" stroke:none;fill-rule:nonzero;fill:rgb(100%,100%,100%);fill-opacity:1;" d="M 5.625 18.539062 L 4.453125 18.539062 C 3.796875 18.539062 3.28125 18.023438 3.28125 17.367188 L 3.28125 12.679688 C 3.28125 12.023438 3.796875 11.507812 4.453125 11.507812 L 5.625 11.507812 "/>
<path style=" stroke:none;fill-rule:nonzero;fill:rgb(100%,100%,100%);fill-opacity:1;" d="M 24.375 18.539062 L 25.546875 18.539062 C 26.203125 18.539062 26.71875 18.023438 26.71875 17.367188 L 26.71875 12.679688 C 26.71875 12.023438 26.203125 11.507812 25.546875 11.507812 L 24.375 11.507812 "/>
<path style=" stroke:none;fill-rule:nonzero;fill:rgb(100%,100%,100%);fill-opacity:1;" d="M 7.96875 20.882812 L 6.796875 20.882812 C 6.140625 20.882812 5.625 20.367188 5.625 19.710938 L 5.625 10.335938 C 5.625 9.679688 6.140625 9.164062 6.796875 9.164062 L 7.96875 9.164062 "/>
<path style=" stroke:none;fill-rule:nonzero;fill:rgb(100%,100%,100%);fill-opacity:1;" d="M 9.140625 22.054688 C 8.484375 22.054688 7.96875 21.539062 7.96875 20.882812 L 7.96875 9.164062 C 7.96875 8.507812 8.484375 7.992188 9.140625 7.992188 C 9.796875 7.992188 10.3125 8.507812 10.3125 9.164062 L 10.3125 20.882812 C 10.3125 21.539062 9.796875 22.054688 9.140625 22.054688 Z M 9.140625 22.054688 "/>
<path style=" stroke:none;fill-rule:nonzero;fill:rgb(100%,100%,100%);fill-opacity:1;" d="M 20.859375 22.054688 C 21.515625 22.054688 22.03125 21.539062 22.03125 20.882812 L 22.03125 9.164062 C 22.03125 8.507812 21.515625 7.992188 20.859375 7.992188 C 20.203125 7.992188 19.6875 8.507812 19.6875 9.164062 L 19.6875 20.882812 C 19.6875 21.539062 20.203125 22.054688 20.859375 22.054688 Z M 20.859375 22.054688 "/>
<path style=" stroke:none;fill-rule:nonzero;fill:rgb(29.019608%,21.568627%,30.980392%);fill-opacity:1;" d="M 27.890625 13.476562 L 27.070312 13.476562 L 27.070312 12.679688 C 27.070312 11.835938 26.390625 11.15625 25.546875 11.15625 L 24.726562 11.15625 L 24.726562 10.335938 C 24.726562 9.492188 24.046875 8.8125 23.203125 8.8125 L 22.335938 8.8125 C 22.171875 8.132812 21.5625 7.640625 20.859375 7.640625 C 20.015625 7.640625 19.335938 8.320312 19.335938 9.164062 L 19.335938 13.476562 L 10.664062 13.476562 L 10.664062 9.164062 C 10.664062 8.320312 9.984375 7.640625 9.140625 7.640625 C 8.414062 7.640625 7.828125 8.132812 7.664062 8.8125 L 6.796875 8.8125 C 5.953125 8.8125 5.273438 9.492188 5.273438 10.335938 L 5.273438 11.15625 L 4.453125 11.15625 C 3.609375 11.15625 2.929688 11.835938 2.929688 12.679688 L 2.929688 13.476562 L 2.109375 13.476562 C 1.265625 13.476562 0.585938 14.15625 0.585938 15 C 0.585938 15.84375 1.265625 16.523438 2.109375 16.523438 L 2.929688 16.523438 L 2.929688 17.367188 C 2.929688 18.210938 3.609375 18.890625 4.453125 18.890625 L 5.273438 18.890625 L 5.273438 19.710938 C 5.273438 20.554688 5.953125 21.234375 6.796875 21.234375 L 7.664062 21.234375 C 7.828125 21.914062 8.4375 22.40625 9.140625 22.40625 C 9.984375 22.40625 10.664062 21.726562 10.664062 20.882812 L 10.664062 16.523438 L 19.335938 16.523438 L 19.335938 20.882812 C 19.335938 21.726562 20.015625 22.40625 20.859375 22.40625 C 21.585938 22.40625 22.171875 21.914062 22.335938 21.234375 L 23.203125 21.234375 C 24.046875 21.234375 24.726562 20.554688 24.726562 19.710938 L 24.726562 18.890625 L 25.546875 18.890625 C 26.390625 18.890625 27.070312 18.210938 27.070312 17.367188 L 27.070312 16.523438 L 27.890625 16.523438 C 28.734375 16.523438 29.414062 15.84375 29.414062 15 C 29.414062 14.15625 28.734375 13.476562 27.890625 13.476562 Z M 2.109375 15.820312 C 1.664062 15.820312 1.289062 15.445312 1.289062 15 C 1.289062 14.554688 1.664062 14.179688 2.109375 14.179688 L 2.929688 14.179688 L 2.929688 15.820312 Z M 4.453125 18.1875 C 4.007812 18.1875 3.632812 17.8125 3.632812 17.367188 L 3.632812 12.679688 C 3.632812 12.234375 4.007812 11.859375 4.453125 11.859375 L 5.273438 11.859375 L 5.273438 18.1875 Z M 5.976562 19.710938 L 5.976562 10.335938 C 5.976562 9.890625 6.351562 9.515625 6.796875 9.515625 L 7.617188 9.515625 L 7.617188 20.53125 L 6.796875 20.53125 C 6.351562 20.53125 5.976562 20.179688 5.976562 19.710938 Z M 9.960938 20.882812 C 9.960938 21.328125 9.585938 21.703125 9.140625 21.703125 C 8.695312 21.703125 8.320312 21.328125 8.320312 20.882812 L 8.320312 9.164062 C 8.320312 8.71875 8.695312 8.34375 9.140625 8.34375 C 9.585938 8.34375 9.960938 8.71875 9.960938 9.164062 Z M 10.664062 15.820312 L 10.664062 14.179688 L 19.335938 14.179688 L 19.335938 15.820312 Z M 21.679688 20.882812 C 21.679688 21.328125 21.304688 21.703125 20.859375 21.703125 C 20.414062 21.703125 20.039062 21.328125 20.039062 20.882812 L 20.039062 9.164062 C 20.039062 8.71875 20.414062 8.34375 20.859375 8.34375 C 21.304688 8.34375 21.679688 8.71875 21.679688 9.164062 Z M 24.023438 19.710938 C 24.023438 20.15625 23.648438 20.53125 23.203125 20.53125 L 22.382812 20.53125 L 22.382812 9.515625 L 23.203125 9.515625 C 23.648438 9.515625 24.023438 9.890625 24.023438 10.335938 Z M 26.367188 17.367188 C 26.367188 17.8125 25.992188 18.1875 25.546875 18.1875 L 24.726562 18.1875 L 24.726562 11.859375 L 25.546875 11.859375 C 25.992188 11.859375 26.367188 12.234375 26.367188 12.679688 Z M 27.890625 15.820312 L 27.070312 15.820312 L 27.070312 14.179688 L 27.890625 14.179688 C 28.335938 14.179688 28.710938 14.554688 28.710938 15 C 28.710938 15.445312 28.335938 15.820312 27.890625 15.820312 Z M 27.890625 15.820312 "/>
</g>
</svg>
