<?xml version="1.0" encoding="UTF-8"?>
<svg xmlns="http://www.w3.org/2000/svg" xmlns:xlink="http://www.w3.org/1999/xlink" width="30px" height="px" viewBox="0 0 30 38" version="1.1">
<g id="surface1">
<path style="fill:none;stroke-width:10;stroke-linecap:butt;stroke-linejoin:miter;stroke:rgb(1.960784%,1.960784%,1.960784%);stroke-opacity:1;stroke-miterlimit:10;" d="M 208.833948 122.243741 C 228.712846 102.817073 234.832677 73.312553 224.365656 47.538983 C 213.898635 21.808297 188.870638 4.997582 161.057063 4.997582 C 133.243487 4.997582 108.21549 21.808297 97.748469 47.538983 C 87.239242 73.312553 93.401279 102.817073 113.280177 122.243741 " transform="matrix(0.0925526,0,0,0.0910877,0,0.0291565)"/>
<path style="fill:none;stroke-width:10;stroke-linecap:butt;stroke-linejoin:miter;stroke:rgb(1.960784%,1.960784%,1.960784%);stroke-opacity:1;stroke-miterlimit:10;" d="M 194.061943 172.161271 L 229.472549 172.161271 C 235.0015 172.161271 239.475307 167.701285 239.475307 162.169188 L 239.475307 132.235824 C 239.475307 126.746611 235.0015 122.243741 229.472549 122.243741 L 92.641576 122.243741 C 87.112625 122.243741 82.638818 126.746611 82.638818 132.235824 L 82.638818 162.169188 C 82.638818 167.701285 87.112625 172.161271 92.641576 172.161271 L 172.410404 172.161271 " transform="matrix(0.0925526,0,0,0.0910877,0,0.0291565)"/>
<path style="fill:none;stroke-width:10;stroke-linecap:butt;stroke-linejoin:miter;stroke:rgb(1.960784%,1.960784%,1.960784%);stroke-opacity:1;stroke-miterlimit:10;" d="M 68.58431 313.594274 C 69.048573 312.607931 69.47063 311.664472 69.934893 310.678129 C 95.722594 252.784086 103.108596 172.161271 103.108596 172.161271 L 172.410404 172.161271 " transform="matrix(0.0925526,0,0,0.0910877,0,0.0291565)"/>
<path style="fill:none;stroke-width:10;stroke-linecap:butt;stroke-linejoin:miter;stroke:rgb(1.960784%,1.960784%,1.960784%);stroke-opacity:1;stroke-miterlimit:10;" d="M 194.061943 172.161271 L 219.08994 172.161271 C 219.08994 172.161271 226.391531 252.784086 252.179232 310.678129 C 252.643495 311.664472 253.065552 312.650815 253.529815 313.594274 " transform="matrix(0.0925526,0,0,0.0910877,0,0.0291565)"/>
<path style="fill:none;stroke-width:10;stroke-linecap:butt;stroke-linejoin:miter;stroke:rgb(1.960784%,1.960784%,1.960784%);stroke-opacity:1;stroke-miterlimit:10;" d="M 54.994065 310.678129 L 267.077854 310.678129 C 278.262372 310.678129 287.336604 319.726754 287.336604 330.919602 L 287.336604 373.804078 L 34.777521 373.804078 L 34.777521 330.919602 C 34.735315 319.769638 43.809547 310.678129 54.994065 310.678129 Z M 54.994065 310.678129 " transform="matrix(0.0925526,0,0,0.0910877,0,0.0291565)"/>
<path style="fill:none;stroke-width:10;stroke-linecap:butt;stroke-linejoin:miter;stroke:rgb(1.960784%,1.960784%,1.960784%);stroke-opacity:1;stroke-miterlimit:10;" d="M 245.215286 411.542418 L 319.159724 411.542418 C 319.159724 390.700562 302.235227 373.804078 281.427802 373.804078 L 42.712198 373.804078 C 21.904773 373.804078 5.022482 390.700562 4.980276 411.542418 L 223.563747 411.542418 " transform="matrix(0.0925526,0,0,0.0910877,0,0.0291565)"/>
<path style="fill:none;stroke-width:10;stroke-linecap:butt;stroke-linejoin:miter;stroke:rgb(1.960784%,1.960784%,1.960784%);stroke-opacity:1;stroke-miterlimit:10;" d="M 161.057063 42.264192 L 165.066607 42.264192 C 181.062578 42.264192 194.061943 55.258189 194.061943 71.254098 " transform="matrix(0.0925526,0,0,0.0910877,0,0.0291565)"/>
</g>
</svg>
