<?xml version="1.0" encoding="UTF-8"?>
<svg xmlns="http://www.w3.org/2000/svg" xmlns:xlink="http://www.w3.org/1999/xlink" width="30px" height="px" viewBox="0 0 30 29" version="1.1">
<g id="surface1">
<path style=" stroke:none;fill-rule:nonzero;fill:rgb(10.196078%,9.019608%,10.588235%);fill-opacity:1;" d="M 28.332031 4.101562 L 26.058594 4.101562 L 26.058594 0.441406 C 26.058594 0.199219 25.855469 0 25.605469 0 L 4.394531 0 C 4.273438 0 4.15625 0.0429688 4.070312 0.128906 C 3.984375 0.210938 3.9375 0.320312 3.9375 0.441406 L 3.9375 4.101562 L 1.667969 4.101562 C 0.746094 4.101562 0 4.824219 0 5.710938 L 0 23.875 C 0 24.765625 0.746094 25.488281 1.667969 25.488281 L 9.09375 25.488281 L 9.09375 28.125 L 5.910156 28.125 C 5.742188 28.117188 5.582031 28.199219 5.496094 28.335938 C 5.40625 28.476562 5.40625 28.652344 5.496094 28.789062 C 5.582031 28.929688 5.742188 29.011719 5.910156 29.003906 L 24.09375 29.003906 C 24.335938 28.988281 24.523438 28.796875 24.523438 28.5625 C 24.523438 28.332031 24.335938 28.136719 24.09375 28.125 L 20.910156 28.125 L 20.910156 25.488281 L 28.332031 25.488281 C 29.253906 25.488281 30 24.765625 30 23.875 L 30 5.710938 C 30 4.824219 29.253906 4.101562 28.332031 4.101562 Z M 28.332031 4.980469 C 28.75 4.980469 29.089844 5.308594 29.089844 5.710938 L 29.089844 21.089844 L 26.058594 21.089844 L 26.058594 4.984375 Z M 4.847656 0.878906 L 25.152344 0.878906 L 25.152344 21.089844 L 4.847656 21.089844 Z M 0.910156 5.710938 C 0.914062 5.308594 1.25 4.984375 1.667969 4.984375 L 3.9375 4.984375 L 3.9375 21.089844 L 0.910156 21.089844 Z M 20 28.121094 L 10 28.121094 L 10 25.484375 L 20 25.484375 Z M 29.09375 23.875 C 29.09375 24.277344 28.753906 24.605469 28.335938 24.605469 L 1.667969 24.605469 C 1.25 24.605469 0.910156 24.28125 0.910156 23.875 L 0.910156 21.972656 L 29.089844 21.972656 Z M 22.554688 4.984375 L 7.441406 4.984375 C 7.191406 4.984375 6.988281 4.789062 6.988281 4.546875 C 6.988281 4.304688 7.191406 4.105469 7.441406 4.105469 L 22.554688 4.105469 C 22.808594 4.105469 23.011719 4.304688 23.011719 4.546875 C 23.011719 4.789062 22.808594 4.984375 22.554688 4.984375 Z M 18.027344 2.175781 C 18.15625 2.300781 18.195312 2.492188 18.125 2.65625 C 18.054688 2.820312 17.890625 2.925781 17.707031 2.929688 C 16.855469 2.851562 17.359375 1.667969 18.027344 2.175781 Z M 20.128906 2.050781 C 20.382812 2.050781 20.585938 2.25 20.585938 2.492188 C 20.585938 2.734375 20.382812 2.929688 20.128906 2.929688 C 19.878906 2.929688 19.675781 2.734375 19.675781 2.492188 C 19.675781 2.25 19.878906 2.050781 20.128906 2.050781 Z M 22.875 2.175781 C 23.003906 2.300781 23.039062 2.492188 22.972656 2.65625 C 22.902344 2.820312 22.738281 2.925781 22.554688 2.929688 C 21.703125 2.851562 22.207031 1.667969 22.875 2.175781 Z M 17.234375 9.199219 L 13.597656 17.402344 C 13.5 17.628906 13.230469 17.730469 13 17.636719 C 12.765625 17.539062 12.65625 17.28125 12.757812 17.054688 L 16.394531 8.851562 C 16.492188 8.628906 16.757812 8.527344 16.992188 8.621094 C 17.222656 8.71875 17.328125 8.976562 17.230469 9.199219 Z M 11.492188 10.820312 L 8.835938 13.128906 L 11.492188 15.4375 C 11.679688 15.601562 11.695312 15.878906 11.527344 16.058594 C 11.359375 16.242188 11.070312 16.257812 10.882812 16.09375 L 7.855469 13.457031 C 7.757812 13.375 7.703125 13.253906 7.703125 13.128906 C 7.703125 13.003906 7.757812 12.886719 7.855469 12.800781 L 10.882812 10.164062 C 11.070312 10.003906 11.359375 10.019531 11.527344 10.199219 C 11.695312 10.378906 11.679688 10.660156 11.492188 10.820312 Z M 22.144531 12.800781 C 22.242188 12.886719 22.296875 13.003906 22.296875 13.128906 C 22.296875 13.253906 22.242188 13.375 22.144531 13.457031 L 19.113281 16.09375 C 18.925781 16.253906 18.640625 16.242188 18.472656 16.058594 C 18.304688 15.878906 18.320312 15.601562 18.507812 15.4375 L 21.164062 13.128906 L 18.507812 10.816406 C 18.320312 10.65625 18.304688 10.378906 18.472656 10.195312 C 18.640625 10.015625 18.925781 10 19.113281 10.164062 Z M 22.144531 12.800781 "/>
</g>
</svg>
