<?xml version="1.0" encoding="UTF-8"?>
<svg xmlns="http://www.w3.org/2000/svg" xmlns:xlink="http://www.w3.org/1999/xlink" width="30px" height="px" viewBox="0 0 30 31" version="1.1">
<g id="surface1">
<path style=" stroke:none;fill-rule:nonzero;fill:rgb(0%,0%,0%);fill-opacity:1;" d="M 28.882812 16.914062 C 27.730469 15.695312 26.851562 14.25 26.296875 12.675781 C 26.378906 5.65625 20.671875 -0.101562 13.554688 -0.183594 C 6.4375 -0.265625 0.601562 5.363281 0.519531 12.382812 C 0.117188 16.804688 3.386719 20.625 5.28125 24.1875 C 5.769531 25.503906 6.054688 26.886719 6.121094 28.289062 C 6.253906 29.828125 7.558594 31.007812 9.125 31 L 10.863281 31 C 12.527344 30.996094 13.878906 29.667969 13.878906 28.027344 L 13.878906 24.75 L 17.851562 24.75 C 20.917969 24.746094 23.402344 22.296875 23.40625 19.273438 C 23.40625 19.011719 23.191406 18.800781 22.929688 18.800781 L 18.480469 18.800781 C 16.636719 18.800781 14.910156 19.707031 13.878906 21.214844 L 13.878906 15.984375 L 15.941406 15.984375 C 19.011719 15.984375 21.496094 13.527344 21.496094 10.5 C 21.496094 10.242188 21.28125 10.03125 21.019531 10.03125 L 18.480469 10.03125 C 16.632812 10.035156 14.910156 10.941406 13.878906 12.453125 L 13.878906 11.132812 C 13.875 8.109375 11.390625 5.660156 8.328125 5.65625 L 6.421875 5.65625 C 6.160156 5.65625 5.945312 5.867188 5.945312 6.125 C 5.945312 9.152344 8.433594 11.605469 11.5 11.605469 L 12.925781 11.605469 L 12.925781 16.835938 C 11.898438 15.328125 10.171875 14.421875 8.328125 14.417969 L 4.519531 14.417969 C 4.257812 14.421875 4.042969 14.628906 4.042969 14.890625 C 4.046875 17.914062 6.53125 20.363281 9.597656 20.367188 L 12.925781 20.367188 L 12.925781 28.027344 C 12.925781 29.148438 12.003906 30.058594 10.863281 30.058594 L 9.125 30.058594 C 8.054688 30.066406 7.160156 29.257812 7.074219 28.207031 C 6.976562 25.441406 5.996094 22.777344 4.277344 20.589844 C 1.351562 17.140625 0.628906 12.367188 2.414062 8.226562 C 4.195312 4.089844 8.179688 1.285156 12.726562 0.96875 C 16 0.800781 19.203125 1.960938 21.585938 4.183594 C 23.972656 6.40625 25.328125 9.492188 25.34375 12.726562 C 25.863281 14.527344 26.828125 16.171875 28.152344 17.515625 C 28.398438 17.765625 28.535156 18.09375 28.546875 18.4375 C 28.535156 18.5 28.5 18.695312 28.136719 18.902344 C 27.308594 19.355469 26.453125 19.757812 25.570312 20.105469 C 25.367188 20.183594 25.242188 20.386719 25.269531 20.601562 C 25.472656 22.085938 25.488281 23.585938 25.320312 25.070312 C 25.179688 25.773438 23.574219 26.246094 21.3125 26.246094 C 20.753906 26.199219 20.203125 26.390625 19.796875 26.773438 C 19.394531 27.15625 19.179688 27.695312 19.210938 28.246094 L 19.210938 30.523438 C 19.222656 30.773438 19.433594 30.96875 19.6875 30.96875 C 19.9375 30.96875 20.148438 30.773438 20.160156 30.523438 L 20.160156 28.253906 C 20.140625 27.953125 20.257812 27.660156 20.480469 27.453125 C 20.703125 27.246094 21.007812 27.152344 21.308594 27.191406 C 27.074219 27.164062 26.574219 25.160156 26.253906 20.847656 C 27.882812 20.128906 30.816406 19.230469 28.882812 16.914062 Z M 18.480469 19.742188 L 22.421875 19.742188 C 22.175781 22.050781 20.207031 23.804688 17.851562 23.808594 L 13.902344 23.808594 C 14.152344 21.5 16.125 19.746094 18.480469 19.742188 Z M 18.480469 10.976562 L 20.515625 10.976562 C 20.269531 13.289062 18.292969 15.042969 15.9375 15.046875 L 13.902344 15.046875 C 14.152344 12.734375 16.125 10.980469 18.480469 10.976562 Z M 11.5 10.664062 C 9.144531 10.660156 7.171875 8.90625 6.925781 6.59375 L 8.328125 6.59375 C 10.683594 6.597656 12.65625 8.351562 12.902344 10.664062 Z M 9.597656 19.429688 C 7.238281 19.425781 5.265625 17.671875 5.019531 15.359375 L 8.328125 15.359375 C 10.683594 15.363281 12.65625 17.117188 12.902344 19.429688 Z M 9.597656 19.429688 "/>
</g>
</svg>
